<?xml version="1.0" standalone="no"?>
<!DOCTYPE svg PUBLIC "-//W3C//DTD SVG 20010904//EN"
 "http://www.w3.org/TR/2001/REC-SVG-20010904/DTD/svg10.dtd">
<svg version="1.0" xmlns="http://www.w3.org/2000/svg"
 width="256.000000pt" height="256.000000pt" viewBox="0 0 256.000000 256.000000"
 preserveAspectRatio="xMidYMid meet">
<metadata>
Created by potrace 1.15, written by Peter Selinger 2001-2017
</metadata>
<g transform="translate(0.000000,256.000000) scale(0.100000,-0.100000)"
fill="#000000" stroke="none">
<path d="M0 1280 l0 -1280 970 0 c854 0 971 2 976 15 4 8 12 15 19 15 8 0 17
9 20 20 3 11 12 20 20 20 8 0 17 9 20 20 3 11 12 20 20 20 8 0 17 9 20 20 3
11 12 20 20 20 8 0 17 9 20 20 3 11 12 20 20 20 8 0 17 9 20 20 3 11 12 20 20
20 8 0 17 9 20 20 3 11 12 20 20 20 8 0 17 9 20 20 3 11 12 20 20 20 8 0 17 9
20 20 3 11 12 20 20 20 8 0 17 9 20 20 3 11 12 20 20 20 8 0 17 9 20 20 3 11
12 20 20 20 8 0 17 9 20 20 3 11 12 20 20 20 8 0 17 9 20 20 3 11 12 20 20 20
8 0 17 9 20 20 3 11 12 20 20 20 8 0 17 9 20 20 3 11 11 20 16 20 39 0 39 -12
39 999 l0 971 -1280 0 -1280 0 0 -1280z m1049 907 c78 -62 259 -301 352 -464
23 -41 25 -42 89 -48 418 -40 665 -113 609 -181 -59 -71 -483 -153 -733 -142
-133 6 -160 24 -225 161 -89 184 -190 516 -191 625 0 87 31 103 99 49z m-482
-286 c142 -95 455 -466 484 -574 22 -81 -14 -159 -160 -355 -152 -202 -299
-353 -359 -368 -84 -22 -65 127 53 418 24 59 60 139 80 178 l36 71 -85 172
c-121 246 -177 416 -156 472 13 35 38 32 107 -14z m948 -692 c319 -21 556 -75
587 -132 33 -63 -192 -139 -517 -177 -55 -6 -114 -13 -131 -16 -27 -4 -39 -18
-98 -117 -133 -223 -282 -408 -339 -423 -43 -10 -57 9 -57 80 0 159 155 641
233 724 29 32 73 54 122 63 22 3 42 7 45 8 3 0 72 -4 155 -10z"/>
</g>
</svg>
